HIERARCHY
ROOT Hips
{
	OFFSET -0.001795 -0.223333 0.028219
	CHANNELS 6 Xposition Yposition Zposition Zrotation Yrotation Xrotation 
	JOINT LeftUpLeg
	{
		OFFSET 0.069520 -0.091406 -0.006815
		CHANNELS 3 Zrotation Yrotation Xrotation
		JOINT LeftLeg
		{
			OFFSET 0.034277 -0.375199 -0.004496
			CHANNELS 3 Zrotation Yrotation Xrotation
			JOINT LeftFoot
			{
				OFFSET -0.013596 -0.397961 -0.043693
				CHANNELS 3 Zrotation Yrotation Xrotation
				JOINT LeftToe
				{
					OFFSET 0.026358 -0.055791 0.119288
					CHANNELS 3 Zrotation Yrotation Xrotation
					End Site
					{
						OFFSET 0.000000 0.000000 0.000000
					}
				}
			}
		}
	}
	JOINT RightUpLeg
	{
		OFFSET -0.067670 -0.090522 -0.004320
		CHANNELS 3 Zrotation Yrotation Xrotation
		JOINT RightLeg
		{
			OFFSET -0.038290 -0.382569 -0.008850
			CHANNELS 3 Zrotation Yrotation Xrotation
			JOINT RightFoot
			{
				OFFSET 0.015774 -0.398415 -0.042312
				CHANNELS 3 Zrotation Yrotation Xrotation
				JOINT RightToe
				{
					OFFSET -0.025372 -0.048144 0.123348
					CHANNELS 3 Zrotation Yrotation Xrotation
					End Site
					{
						OFFSET 0.000000 0.000000 0.000000
					}
				}
			}
		}
	}
	JOINT Spine
	{
		OFFSET -0.002533 0.108963 -0.026696
		CHANNELS 3 Zrotation Yrotation Xrotation
		JOINT Spine1
		{
			OFFSET 0.005487 0.135180 0.001092
			CHANNELS 3 Zrotation Yrotation Xrotation
			JOINT Spine2
			{
				OFFSET 0.001457 0.052922 0.025425
				CHANNELS 3 Zrotation Yrotation Xrotation
				JOINT Neck
				{
					OFFSET -0.002778 0.213870 -0.042857
					CHANNELS 3 Zrotation Yrotation Xrotation
					JOINT Head
					{
						OFFSET 0.005152 0.064970 0.051349
						CHANNELS 3 Zrotation Yrotation Xrotation
						End Site
						{
							OFFSET 0.000000 0.000000 0.000000
						}
					}
				}
				JOINT LeftShoulder
				{
					OFFSET 0.078845 0.121749 -0.034090
					CHANNELS 3 Zrotation Yrotation Xrotation
					JOINT LeftArm
					{
						OFFSET 0.090977 0.030469 -0.008868
						CHANNELS 3 Zrotation Yrotation Xrotation
						JOINT LeftForeArm
						{
							OFFSET 0.259612 -0.012772 -0.027456
							CHANNELS 3 Zrotation Yrotation Xrotation
							JOINT LeftHand
							{
								OFFSET 0.249234 0.008986 -0.001171
								CHANNELS 3 Zrotation Yrotation Xrotation
								End Site
								{
									OFFSET 0.000000 0.000000 0.000000
								}
							}
						}
					}
				}
				JOINT RightShoulder
				{
					OFFSET -0.081759 0.118833 -0.038615
					CHANNELS 3 Zrotation Yrotation Xrotation
					JOINT RightArm
					{
						OFFSET -0.096012 0.032551 -0.009143
						CHANNELS 3 Zrotation Yrotation Xrotation
						JOINT RightForeArm
						{
							OFFSET -0.253742 -0.013329 -0.021401
							CHANNELS 3 Zrotation Yrotation Xrotation
							JOINT RightHand
							{
								OFFSET -0.255298 0.007772 -0.005559
								CHANNELS 3 Zrotation Yrotation Xrotation
								End Site
								{
									OFFSET 0.000000 0.000000 0.000000
								}
							}
						}
					}
				}
			}
		}
	}
}
MOTION
Frames: 7
Frame Time: 0.050000
-0.497146 0.737131 1.131357 5.229316 11.259773 5.565779 31.079142 4.814537 -48.890882 -16.595280 10.793399 84.404971 9.067504 19.017925 -1.814254 0.000000 0.000000 0.000000 2.406943 3.875142 -56.978073 7.800828 -8.812032 81.909325 -9.353787 -24.548910 -20.110878 0.000000 0.000000 0.000000 1.880325 -6.537346 54.751755 -5.207954 1.771783 -31.229718 -6.216429 2.885169 24.103867 16.668559 -2.584354 -46.454094 0.000000 0.000000 0.000000 14.705142 -43.513693 9.510084 26.587000 -29.081173 -6.619464 96.930520 -18.195483 -22.184447 0.000000 0.000000 0.000000 4.623031 25.718487 10.809219 -26.977337 31.765141 -6.865674 -97.430338 31.273791 -32.077747 0.000000 0.000000 0.000000 
-0.498744 0.729403 1.132929 5.489736 11.469685 5.897689 30.671667 4.555834 -48.665981 -15.706812 10.858649 90.806610 7.662196 15.653940 -5.575112 0.000000 0.000000 0.000000 2.649308 3.966802 -58.007967 8.167065 -9.414567 83.364766 -9.575082 -25.169837 -19.010373 0.000000 0.000000 0.000000 2.101909 -6.732972 54.804252 -5.463076 1.805723 -31.361939 -5.598934 4.125258 23.804504 16.478249 -2.395530 -46.087108 0.000000 0.000000 0.000000 14.256343 -43.990757 9.836652 25.832084 -28.476387 -6.439533 98.636414 -17.275783 -22.114243 0.000000 0.000000 0.000000 3.315785 25.271647 10.404790 -28.315626 31.835427 -6.963204 -96.068292 29.848455 -29.578605 0.000000 0.000000 0.000000 
-0.499942 0.722943 1.134762 5.491954 12.292668 5.714616 30.588195 4.215900 -48.190230 -15.907404 11.068074 93.032283 7.320108 14.604583 -7.823167 0.000000 0.000000 0.000000 2.479164 3.629813 -58.211910 8.609428 -10.310840 83.699816 -9.811608 -26.077900 -19.130861 0.000000 0.000000 0.000000 2.606635 -7.298995 55.062331 -5.773220 1.854626 -31.537308 -5.075543 4.615353 23.947749 16.688416 -2.552240 -45.262480 0.000000 0.000000 0.000000 14.774154 -43.656471 9.615268 24.695043 -28.302973 -6.262948 99.421822 -16.313901 -21.663512 0.000000 0.000000 0.000000 2.147334 25.327500 10.119585 -29.566360 31.514686 -6.958849 -93.426619 28.167941 -26.584877 0.000000 0.000000 0.000000 
-0.500873 0.718523 1.136542 5.287255 13.193770 5.877914 31.100659 4.073292 -48.058515 -17.692690 12.616442 91.495541 8.056087 16.513118 -7.139124 0.000000 0.000000 0.000000 1.977741 3.074580 -58.945615 9.245507 -11.412403 84.023796 -10.168467 -27.061989 -17.867069 0.000000 0.000000 0.000000 3.014623 -7.834729 55.212867 -5.310881 1.777177 -31.768019 -4.814253 5.894337 23.990812 16.396186 -2.446585 -44.086712 0.000000 0.000000 0.000000 15.301277 -43.938265 9.568858 23.781726 -27.794525 -6.131626 99.673311 -15.540340 -21.432608 0.000000 0.000000 0.000000 1.176595 24.925343 9.795974 -30.079703 31.321057 -6.775042 -92.355005 27.861204 -25.521731 0.000000 0.000000 0.000000 
-0.501777 0.716603 1.138104 5.210807 13.753032 6.361510 31.455188 3.862140 -46.821141 -20.330291 14.102321 85.892677 9.897638 20.932987 -6.613022 0.000000 0.000000 0.000000 1.736787 2.757703 -59.603165 9.330863 -11.749781 84.448323 -10.193627 -27.108819 -17.769303 0.000000 0.000000 0.000000 3.606477 -8.303272 54.980418 -5.561930 1.810697 -31.672369 -4.521636 5.990527 24.542403 16.801134 -2.372511 -45.145942 0.000000 0.000000 0.000000 16.724548 -42.479354 8.952568 22.462347 -27.840134 -5.997471 100.775465 -14.055387 -20.452524 0.000000 0.000000 0.000000 -1.586510 23.657387 8.496163 -29.037780 32.090661 -6.740930 -92.181497 26.465724 -23.571562 0.000000 0.000000 0.000000 
-0.503274 0.715605 1.139774 5.055712 14.441246 5.604015 30.185339 3.130872 -45.256920 -21.315443 13.324900 81.339070 10.917301 22.987815 -2.860068 0.000000 0.000000 0.000000 0.953361 2.110195 -58.263495 10.085653 -13.066054 84.128298 -10.551541 -28.475446 -18.162011 0.000000 0.000000 0.000000 4.070172 -8.826163 55.258900 -4.953105 1.735158 -31.530404 -4.853086 6.300280 25.162332 17.535874 -2.638681 -45.049531 0.000000 0.000000 0.000000 17.986220 -41.583900 8.441940 21.234507 -27.530779 -5.748183 100.312801 -12.770617 -19.394666 0.000000 0.000000 0.000000 -3.008850 23.923514 8.115702 -27.638503 32.172382 -6.408399 -92.772243 25.519199 -22.574163 0.000000 0.000000 0.000000 
-0.505561 0.715488 1.141625 5.234245 15.095282 5.540971 29.538646 2.733120 -44.993307 -22.690662 13.398216 77.367200 12.017724 24.981742 -0.181953 0.000000 0.000000 0.000000 -0.225651 1.288705 -57.198582 10.416761 -13.920035 84.207581 -10.574131 -28.979693 -19.692630 0.000000 0.000000 0.000000 4.004657 -8.983957 55.285103 -4.807659 1.709808 -31.599768 -4.711679 6.417991 25.677612 17.129451 -2.665516 -43.880722 0.000000 0.000000 0.000000 18.677265 -41.531882 8.216226 20.810106 -27.115422 -5.569118 99.761515 -12.621513 -19.353175 0.000000 0.000000 0.000000 -3.491445 22.924778 7.608931 -26.015263 33.883998 -6.620920 -93.194277 25.219700 -22.074062 0.000000 0.000000 0.000000 
